<svg xmlns="http://www.w3.org/2000/svg" xmlns:xlink="http://www.w3.org/1999/xlink" aria-hidden="true" role="img" class="iconify iconify--logos" width="31.88" height="32" preserveAspectRatio="xMidYMid meet" viewBox="0 0 256 257"><defs><linearGradient id="IconifyId1813088fe1fbc01fb467" x1="-.828%" x2="57.636%" y1="7.652%" y2="78.411%"><stop offset="0%" stop-color="#41D1FF"></stop><stop offset="100%" stop-color="#BD34FE"></stop></linearGradient><linearGradient id="IconifyId1813088fe1fbc01fb468" x1="43.376%" x2="58.316%" y1="-12.32%" y2="105.333%"><stop offset="0%" stop-color="#FFEA83"></stop><stop offset="8.333%" stop-color="#FFDD35"></stop><stop offset="100%" stop-color="#FFA800"></stop></linearGradient></defs><path fill="url(#IconifyId1813088fe1fbc01fb467)" d="M255.153 37.343a31.763 31.763 0 0 0-24.63-15.546l-65.37-17.354a31.763 31.763 0 0 0-35.823 10.926L8.173 178.402a31.763 31.763 0 0 0 10.926 35.823l65.37 17.354a31.763 31.763 0 0 0 35.823-10.926l131.157-163.033a31.763 31.763 0 0 0 3.704-20.277Z"></path><path fill="url(#IconifyId1813088fe1fbc01fb468)" d="M195.12 2.111a31.763 31.763 0 0 0-31.39 2.111L32.573 89.134a31.763 31.763 0 0 0-13.037 24.63l-4.222 65.37a31.763 31.763 0 0 0 24.63 31.39l131.157 34.788a31.763 31.763 0 0 0 31.39-2.111l131.157-84.912a31.763 31.763 0 0 0 13.037-24.63l4.222-65.37a31.763 31.763 0 0 0-24.63-31.39L195.12 2.111Z"></path></svg>